{"title":"Billy The Kid 2013 HDRiP XViD UNiQUE","uid":8855650,"size":1479403859,"categoryP":"video","categoryS":"movies","magnet":"?xt=urn:btih:cb0ed5e20e0ce3c592677fe888a5143892592647&amp;dn=Billy+The+Kid+2013+HDRiP+XViD+UNiQUE&amp;tr=udp%3A%2F%2Ftracker.openbittorrent.com%3A80&amp;tr=udp%3A%2F%2Fopen.demonii.com%3A1337&amp;tr=udp%3A%2F%2Ftracker.coppersurfer.tk%3A6969&amp;tr=udp%3A%2F%2Fexodus.desync.com%3A6969","seeders":9,"leechers":2,"uploader":"xxxlavalxxx","files":-1,"time":1377642845,"description":" &lt;a href=&quot;http://www.imdb.com/title/tt2935888/&quot; rel=&quot;nofollow&quot; target=&quot;_NEW&quot;&gt;http://www.imdb.com/title/tt2935888/&lt;/a&gt;\n\n\n\nA bounty hunter from New Mexico and a gang of horsemen called &quot;Four of the Apocalypse&quot; set their sights on the town of Dogma. \n\n\n\nDirector:\n Christopher Forbes \n\nWriter:\n Graye Bumgardner \n\nStars:\n Dan Beck, Christopher Bowman, Graye Bumgardner\n\nGenres:\n  Action |  Western \n\nCountry:\n USA \n\nLanguage:\n English \n\n\nFormat                                   : AVI\n Format/Info                              : Audio Video Interleave\n File size                                : 1.37 GiB\n Duration                                 : 1h 20mn\n Overall bit rate                         : 2 443 Kbps\n Writing application                      : VirtualDubMod 1.5.10.2 (build 2540/release)\n Writing library                          : VirtualDubMod build 2540/release\n\n Video\n ID                                       : 0\n Format                                   : MPEG-4 Visual\n Format profile                           : Advanced Simple@L5\n Format settings, BVOP                    : 2\n Format settings, QPel                    : No\n Format settings, GMC                     : No warppoints\n Format settings, Matrix                  : Default (H.263)\n Muxing mode                              : Packed bitstream\n Codec ID                                 : XVID\n Codec ID/Hint                            : XviD\n Duration                                 : 1h 20mn\n Bit rate                                 : 2 241 Kbps\n Width                                    : 720 pixels\n Height                                   : 304 pixels\n Display aspect ratio                     : 2.35:1\n Frame rate                               : 23.976 fps\n Color space                              : YUV\n Chroma subsampling                       : 4:2:0\n Bit depth                                : 8 bits\n Scan type                                : Progressive\n Compression mode                         : Lossy\n Bits/(Pixel*Frame)                       : 0.427\n Stream size                              : 1.25 GiB (92%)\n Writing library                          : XviD 64\n\n Audio\n ID                                       : 1\n Format                                   : AC-3\n Format/Info                              : Audio Coding 3\n Mode extension                           : CM (complete main)\n Format settings, Endianness              : Big\n Codec ID                                 : 2000\n Duration                                 : 1h 20mn\n Bit rate mode                            : Constant\n Bit rate                                 : 192 Kbps\n Channel(s)                               : 2 channels\n Channel positions                        : Front: L R\n Sampling rate                            : 48.0 KHz\n Bit depth                                : 16 bits\n Compression mode                         : Lossy\n Stream size                              : 110 MiB (8%)\n Alignment                                : Split accross interleaves\n Interleave, duration                     : 42 ms (1.00 video frame)\n Interleave, preload duration             : 500 ms\n\n\nSource Used       1080p - Thanks\n\n\n &lt;a href=&quot;\nhttp://bayimg.com/pAPlOaAeb&quot; rel=&quot;nofollow&quot; target=&quot;_NEW&quot;&gt;\nhttp://bayimg.com/pAPlOaAeb&lt;/a&gt; &lt;a href=&quot;\nhttp://bayimg.com/AaPmEaaEB&quot; rel=&quot;nofollow&quot; target=&quot;_NEW&quot;&gt;\nhttp://bayimg.com/AaPmEaaEB&lt;/a&gt;","torrent":{"xt":"urn:btih:cb0ed5e20e0ce3c592677fe888a5143892592647","amp;dn":"Billy+The+Kid+2013+HDRiP+XViD+UNiQUE","amp;tr":["udp%3A%2F%2Ftracker.openbittorrent.com%3A80","udp%3A%2F%2Fopen.demonii.com%3A1337","udp%3A%2F%2Ftracker.coppersurfer.tk%3A6969","udp%3A%2F%2Fexodus.desync.com%3A6969"],"infoHash":"cb0ed5e20e0ce3c592677fe888a5143892592647","infoHashBuffer":{"type":"Buffer","data":[203,14,213,226,14,12,227,197,146,103,127,232,136,165,20,56,146,89,38,71]},"announce":[],"urlList":[]}}